<svg xmlns="http://www.w3.org/2000/svg" viewBox="0 0 32 38">
  <defs>
    <filter id="a">
      <feColorMatrix in="SourceGraphic" values="0 0 0 0 0.466667 0 0 0 0 0.094118 0 0 0 0 0.850980 0 0 0 1.000000 0"/>
    </filter>
  </defs>
  <g transform="translate(-239 -223)" filter="url(#a)" fill="none" fill-rule="evenodd">
    <g fill="#000" fill-rule="nonzero">
      <path d="M268 261h-26a3 3 0 0 1-3-3v-32a3 3 0 0 1 3-3h26a3 3 0 0 1 3 3v32a3 3 0 0 1-3 3Zm-26-36a1 1 0 0 0-1 1v32a1 1 0 0 0 1 1h26a1 1 0 0 0 1-1v-32a1 1 0 0 0-1-1h-26Z"/>
      <path d="M260 231h-14a1 1 0 0 1 0-2h14a1 1 0 0 1 0 2ZM264 235h-18a1 1 0 0 1 0-2h18a1 1 0 0 1 0 2ZM264 239h-18a1 1 0 0 1 0-2h18a1 1 0 0 1 0 2ZM256 243h-10a1 1 0 0 1 0-2h10a1 1 0 0 1 0 2ZM264 251h-18a1 1 0 0 1 0-2h18a1 1 0 0 1 0 2ZM260 255h-14a1 1 0 0 1 0-2h14a1 1 0 0 1 0 2Z"/>
    </g>
  </g>
</svg>
