<svg xmlns="http://www.w3.org/2000/svg" viewBox="0 0 33 38">
  <defs>
    <filter id="a">
      <feColorMatrix in="SourceGraphic" values="0 0 0 0 0.466667 0 0 0 0 0.094118 0 0 0 0 0.850980 0 0 0 1.000000 0"/>
    </filter>
  </defs>
  <g transform="translate(-128 -506)" filter="url(#a)" fill="none" fill-rule="evenodd">
    <path d="M157.45 513.6h-.95v-.95a2.85 2.85 0 0 0-2.85-2.85h-.95v-.95a2.85 2.85 0 0 0-2.85-2.85H135.6c-.25 0-.5.1-.67.28l-6.65 6.65a.95.95 0 0 0-.28.67v19.95a2.85 2.85 0 0 0 2.85 2.85h.95v.95a2.85 2.85 0 0 0 2.85 2.85h.95v.95a2.85 2.85 0 0 0 2.85 2.85h19a2.85 2.85 0 0 0 2.85-2.85v-24.7a2.85 2.85 0 0 0-2.85-2.85Zm-21.85-5.3v4.35c0 .52-.43.95-.95.95h-4.36l5.31-5.3Zm-5.7 25.25V515.5h4.75a2.85 2.85 0 0 0 2.85-2.85v-4.75h12.35c.52 0 .95.43.95.95v24.7c0 .52-.43.95-.95.95h-19a.95.95 0 0 1-.95-.95Zm3.8 3.8v-.95h16.15a2.85 2.85 0 0 0 2.85-2.85V511.7h.95c.52 0 .95.43.95.95v24.7c0 .52-.43.95-.95.95h-19a.95.95 0 0 1-.95-.95Zm24.7 3.8c0 .52-.43.95-.95.95h-19a.95.95 0 0 1-.95-.95v-.95h16.15a2.85 2.85 0 0 0 2.85-2.85V515.5h.95c.52 0 .95.43.95.95v24.7Z" fill="#000" fill-rule="nonzero"/>
  </g>
</svg>
