<svg xmlns="http://www.w3.org/2000/svg" viewBox="0 0 19 17"><defs><filter id="a"><feColorMatrix in="SourceGraphic" values="0 0 0 0 0.466667 0 0 0 0 0.094118 0 0 0 0 0.850980 0 0 0 1.000000 0"/></filter></defs><g transform="translate(-35 -364)" filter="url(#a)" fill="none" fill-rule="evenodd"><g fill="#7718D9" fill-rule="nonzero"><path d="M44.5 381a.5.5 0 0 1-.24-.06c-.12-.07-2.88-1.61-5.37-4.08a.5.5 0 0 1 .7-.72 27.08 27.08 0 0 0 4.91 3.78c.72-.43 2.93-1.82 4.9-3.78a.5.5 0 0 1 .71.72c-2.5 2.47-5.25 4.01-5.37 4.08a.5.5 0 0 1-.24.06ZM36.28 373a.5.5 0 0 1-.45-.29 8.13 8.13 0 0 1-.83-3.46c0-2.9 2.35-5.25 5.25-5.25a5.52 5.52 0 0 1 4.25 2.4 5.52 5.52 0 0 1 4.25-2.4c2.9 0 5.25 2.36 5.25 5.25 0 1.13-.28 2.3-.83 3.46a.5.5 0 0 1-.9-.42c.48-1.03.73-2.06.73-3.04 0-2.34-1.9-4.25-4.25-4.25-1.7 0-3.36 1.4-3.78 2.66a.5.5 0 0 1-.94 0 4.34 4.34 0 0 0-3.78-2.66 4.26 4.26 0 0 0-4.25 4.25c0 .99.25 2 .73 3.04a.5.5 0 0 1-.45.71Z"/><path d="M45.52 377h-.02c-.2 0-.57-.1-.75-.77l-1.22-4.33-.8 3.28c-.16.64-.53.78-.73.8-.21.02-.6-.03-.9-.62l-.6-1.21a.55.55 0 0 0-.08-.12v.02c-.38.54-1.2.95-1.92.95h-1a.5.5 0 0 1 0-1h1c.42 0 .92-.27 1.09-.52.22-.32.54-.5.89-.48.37.03.7.28.91.7l.45.9.94-3.81c.15-.64.48-.78.72-.79.25 0 .57.13.75.76l1.29 4.58 1.18-3.6c.2-.63.58-.74.78-.75.2-.01.6.07.85.68l.72 1.71c.14.33.58.62.93.62h1.5a.5.5 0 0 1 0 1H50c-.75 0-1.56-.54-1.85-1.23l-.59-1.4-1.27 3.9c-.21.63-.57.73-.77.73Z"/></g></g></svg>