<svg xmlns="http://www.w3.org/2000/svg" viewBox="0 0 38 38">
  <defs>
    <filter id="a">
      <feColorMatrix in="SourceGraphic" values="0 0 0 0 0.466667 0 0 0 0 0.094118 0 0 0 0 0.850980 0 0 0 1.000000 0"/>
    </filter>
  </defs>
  <g transform="translate(-118 -358)" filter="url(#a)" fill="none" fill-rule="evenodd">
    <g fill="#000" fill-rule="nonzero">
      <path d="M143.65 375.1a4.76 4.76 0 1 1 .01-9.51 4.76 4.76 0 0 1-.01 9.51Zm0-7.6a2.85 2.85 0 1 0 0 5.7 2.85 2.85 0 0 0 0-5.7ZM118.95 396a.95.95 0 0 1-.9-1.27c2.93-8.04 6-12.12 9.14-12.12 1.04 0 2 .45 2.88 1.32 1.38 1.38 1.43 2.76 1.23 3.67-.63 2.87-4.68 5.67-12.03 8.34a.97.97 0 0 1-.32.06Zm8.24-11.5c-.94 0-2.04.83-3.2 2.4a30.05 30.05 0 0 0-3.4 6.5 32.15 32.15 0 0 0 6.08-3.08c2.03-1.4 2.63-2.47 2.78-3.13.14-.66-.1-1.29-.72-1.92-.52-.51-1.02-.76-1.54-.76Z"/>
      <path d="M155.05 358c-4.93 0-9.32.84-13.06 2.49a22.43 22.43 0 0 0-8.94 7.03c-1.64.1-3.32.76-4.99 1.94-1.41 1-2.83 2.37-4.23 4.1-2.33 2.89-3.77 5.74-3.83 5.86a.95.95 0 0 0 1.52 1.1c.01 0 .92-.9 2.47-1.78a13.26 13.26 0 0 1 5.62-1.72c.6 1.54 2.33 3.39 3.15 4.21.83.83 2.67 2.55 4.22 3.16-.15 2.38-1 4.34-1.73 5.62a12.76 12.76 0 0 1-1.77 2.47.95.95 0 0 0 1.1 1.52c.11-.06 2.97-1.5 5.86-3.84 1.73-1.39 3.1-2.8 4.1-4.22a9.86 9.86 0 0 0 1.94-4.99 22.43 22.43 0 0 0 7.03-8.94c1.65-3.74 2.49-8.13 2.49-13.06V358h-.95Zm-31.15 18.64c1.81-2.63 4.58-5.9 7.7-6.92a18.1 18.1 0 0 0-2.1 5.4c-2.2.14-4.1.78-5.6 1.52Zm13.47 13.45c.73-1.5 1.37-3.4 1.5-5.6 1.26-.22 3.24-.86 5.4-2.1-1.02 3.12-4.28 5.89-6.9 7.7Zm9.21-11.66c-3.95 3.48-8.04 4.27-8.63 4.27 0 0-.4 0-1.44-.75a19.24 19.24 0 0 1-2.4-2.06 19.24 19.24 0 0 1-2.06-2.4c-.74-1.04-.75-1.43-.75-1.44 0-.59.79-4.68 4.28-8.63 4.17-4.73 10.56-7.31 18.51-7.5-.2 7.95-2.78 14.33-7.5 18.5Z"/>
    </g>
  </g>
</svg>
