<svg xmlns="http://www.w3.org/2000/svg" viewBox="0 0 38 38">
  <defs>
    <filter id="a">
      <feColorMatrix in="SourceGraphic" values="0 0 0 0 0.466667 0 0 0 0 0.094118 0 0 0 0 0.850980 0 0 0 1.000000 0"/>
    </filter>
  </defs>
  <g transform="translate(-214 -506)" filter="url(#a)" fill="none" fill-rule="evenodd">
    <g fill="#000" fill-rule="nonzero">
      <path d="M247.25 523.1h-1.9a.95.95 0 0 1 0-1.9h1.9a.95.95 0 0 1 0 1.9ZM247.25 530.7h-1.9a.95.95 0 0 1 0-1.9h1.9a.95.95 0 0 1 0 1.9ZM247.25 538.3h-1.9a.95.95 0 0 1 0-1.9h1.9a.95.95 0 0 1 0 1.9Z"/>
      <path d="M252 520.25c0-1.21-.48-2.98-1.09-4.02l-4.73-8.12a4.58 4.58 0 0 0-3.68-2.11h-19c-1.4 0-2.98.9-3.68 2.11l-4.73 8.12a9.27 9.27 0 0 0-1.09 4.02v3.8c0 .73.28 1.4.73 1.9-.45.5-.73 1.17-.73 1.9v3.8c0 .73.28 1.4.73 1.9-.45.5-.73 1.17-.73 1.9v5.7a2.85 2.85 0 0 0 2.85 2.85h32.3a2.85 2.85 0 0 0 2.85-2.85v-5.7c0-.73-.28-1.4-.73-1.9.45-.5.73-1.17.73-1.9v-3.8c0-.73-.28-1.4-.73-1.9.45-.5.73-1.17.73-1.9v-3.8Zm-1.9 7.6v3.8c0 .52-.43.95-.95.95h-32.3a.95.95 0 0 1-.95-.95v-3.8c0-.52.43-.95.95-.95h32.3c.52 0 .95.43.95.95ZM216.85 525a.95.95 0 0 1-.95-.95v-3.8c0-.52.43-.95.95-.95h32.3c.52 0 .95.43.95.95v3.8c0 .52-.43.95-.95.95h-32.3Zm4.61-15.93a2.74 2.74 0 0 1 2.04-1.17h19c.7 0 1.68.56 2.04 1.17l4.73 8.12a4 4 0 0 1 .12.22l-.24-.01h-32.3l-.24.01.12-.22 4.73-8.12Zm28.64 32.08c0 .52-.43.95-.95.95h-32.3a.95.95 0 0 1-.95-.95v-5.7c0-.52.43-.95.95-.95h32.3c.52 0 .95.43.95.95v5.7Z"/>
      <path d="M219.7 529.75a.95.95 0 1 1-1.9 0 .95.95 0 0 1 1.9 0ZM223.5 529.75a.95.95 0 1 1-1.9 0 .95.95 0 0 1 1.9 0ZM227.3 529.75a.95.95 0 1 1-1.9 0 .95.95 0 0 1 1.9 0ZM231.1 529.75a.95.95 0 1 1-1.9 0 .95.95 0 0 1 1.9 0ZM242.5 522.15a.95.95 0 1 1-1.9 0 .95.95 0 0 1 1.9 0ZM242.5 529.75a.95.95 0 1 1-1.9 0 .95.95 0 0 1 1.9 0ZM242.5 537.35a.95.95 0 1 1-1.9 0 .95.95 0 0 1 1.9 0Z"/>
    </g>
  </g>
</svg>
