<svg xmlns="http://www.w3.org/2000/svg" viewBox="0 0 43 38">
  <defs>
    <filter id="a">
      <feColorMatrix in="SourceGraphic" values="0 0 0 0 0.466667 0 0 0 0 0.094118 0 0 0 0 0.850980 0 0 0 1.000000 0"/>
    </filter>
  </defs>
  <g transform="translate(-197 -413)" filter="url(#a)" fill="none" fill-rule="evenodd">
    <g fill="#000" fill-rule="nonzero">
      <path d="M236.06 413h-35.9a3.17 3.17 0 0 0-3.16 3.17v31.66a3.17 3.17 0 0 0 3.17 3.17h35.89a3.17 3.17 0 0 0 3.16-3.17v-31.66a3.17 3.17 0 0 0-3.16-3.17Zm-35.9 2.11h35.9c.58 0 1.05.47 1.05 1.06v5.27h-38v-5.27c0-.59.47-1.06 1.06-1.06Zm35.9 33.78h-35.9c-.58 0-1.05-.47-1.05-1.06v-24.27h38v24.27c0 .59-.47 1.06-1.05 1.06Z"/>
      <path d="M203.33 418.28a1.06 1.06 0 1 1-2.1 0 1.06 1.06 0 0 1 2.1 0ZM207.56 418.28a1.06 1.06 0 1 1-2.12 0 1.06 1.06 0 0 1 2.12 0ZM211.78 418.28a1.06 1.06 0 1 1-2.11 0 1.06 1.06 0 0 1 2.1 0Z"/>
    </g>
  </g>
</svg>
